<svg width="32" height="23" viewBox="0 0 32 23" fill="none" xmlns="http://www.w3.org/2000/svg">
<path d="M12.896 10.936H11.2V9.208H6.016V10.936H4.288V17.816H6.016V19.544H11.2V17.816H12.896V10.936ZM2.56 9.208V7.48H4.288V5.784H11.2V7.48H12.896V0.599998H16.352V23H12.896V21.272H11.2V23H4.288V21.272H2.56V19.544H0.864V9.208H2.56ZM19.8108 9.208V7.48H21.5068V5.784H28.4188V7.48H30.1468V9.208H31.8748V16.12H21.5388V17.816H23.2348V19.544H26.6908V17.816H31.8748V19.544H30.1468V21.272H28.4188V23H21.5068V21.272H19.8108V19.544H18.0828V9.208H19.8108ZM28.4188 12.664V10.904H26.6908V9.176H23.2348V10.904H21.5388V12.664H28.4188Z" fill="white"/>
</svg>
